<mxfile host="app.diagrams.net" modified="2022-01-03T19:18:34.474Z" agent="5.0 (Windows NT 10.0; Win64; x64) AppleWebKit/537.36 (KHTML, like Gecko) Chrome/96.0.4664.110 Safari/537.36" etag="Kp1o09pEFcWCL_d_lF1i" version="15.1.0" type="github">
  <diagram name="Page-1" id="03018318-947c-dd8e-b7a3-06fadd420f32">
    <mxGraphModel dx="1422" dy="800" grid="1" gridSize="10" guides="1" tooltips="1" connect="1" arrows="1" fold="1" page="1" pageScale="1" pageWidth="1100" pageHeight="850" background="none" math="0" shadow="0">
      <root>
        <mxCell id="0" />
        <mxCell id="1" parent="0" />
        <mxCell id="677b7b8949515195-1" value="" style="whiteSpace=wrap;html=1;rounded=0;shadow=0;labelBackgroundColor=none;strokeColor=#000000;strokeWidth=1;fillColor=none;fontFamily=Verdana;fontSize=12;fontColor=#000000;align=center;comic=1;" parent="1" vertex="1">
          <mxGeometry x="20" y="20" width="1200" height="4220" as="geometry" />
        </mxCell>
        <mxCell id="677b7b8949515195-2" value="LOGO" style="whiteSpace=wrap;html=1;rounded=0;shadow=0;labelBackgroundColor=none;strokeWidth=1;fontFamily=Verdana;fontSize=28;align=center;comic=1;" parent="1" vertex="1">
          <mxGeometry x="40" y="60" width="190" height="50" as="geometry" />
        </mxCell>
        <mxCell id="677b7b8949515195-9" value="" style="line;strokeWidth=1;html=1;rounded=0;shadow=0;labelBackgroundColor=none;fillColor=none;fontFamily=Verdana;fontSize=14;fontColor=#000000;align=center;comic=1;" parent="1" vertex="1">
          <mxGeometry x="20" y="140" width="1060" height="10" as="geometry" />
        </mxCell>
        <mxCell id="677b7b8949515195-16" value="" style="verticalLabelPosition=bottom;shadow=0;dashed=0;align=center;html=1;verticalAlign=top;strokeWidth=1;shape=mxgraph.mockup.graphics.simpleIcon;strokeColor=#999999;rounded=0;labelBackgroundColor=none;fontFamily=Verdana;fontSize=14;fontColor=#000000;comic=1;" parent="1" vertex="1">
          <mxGeometry x="20" y="140" width="1200" height="700" as="geometry" />
        </mxCell>
        <mxCell id="0IVP30iTPEPVjAzCu8zg-11" value="" style="group" parent="1" vertex="1" connectable="0">
          <mxGeometry x="340" y="75" width="420" height="20" as="geometry" />
        </mxCell>
        <mxCell id="677b7b8949515195-4" value="home" style="text;html=1;points=[];align=left;verticalAlign=top;spacingTop=-4;fontSize=14;fontFamily=Verdana" parent="0IVP30iTPEPVjAzCu8zg-11" vertex="1">
          <mxGeometry width="60" height="20" as="geometry" />
        </mxCell>
        <mxCell id="677b7b8949515195-5" value="portfolio" style="text;html=1;points=[];align=left;verticalAlign=top;spacingTop=-4;fontSize=14;fontFamily=Verdana" parent="0IVP30iTPEPVjAzCu8zg-11" vertex="1">
          <mxGeometry x="69" width="60" height="20" as="geometry" />
        </mxCell>
        <mxCell id="677b7b8949515195-6" value="testimonials" style="text;html=1;points=[];align=left;verticalAlign=top;spacingTop=-4;fontSize=14;fontFamily=Verdana" parent="0IVP30iTPEPVjAzCu8zg-11" vertex="1">
          <mxGeometry x="165" width="90" height="20" as="geometry" />
        </mxCell>
        <mxCell id="677b7b8949515195-7" value="about" style="text;html=1;points=[];align=left;verticalAlign=top;spacingTop=-4;fontSize=14;fontFamily=Verdana" parent="0IVP30iTPEPVjAzCu8zg-11" vertex="1">
          <mxGeometry x="280" width="60" height="20" as="geometry" />
        </mxCell>
        <mxCell id="0IVP30iTPEPVjAzCu8zg-1" value="contact" style="text;html=1;points=[];align=left;verticalAlign=top;spacingTop=-4;fontSize=14;fontFamily=Verdana" parent="0IVP30iTPEPVjAzCu8zg-11" vertex="1">
          <mxGeometry x="360" width="60" height="20" as="geometry" />
        </mxCell>
        <mxCell id="pWCl2BbgRapGhpGF9SnJ-1" value="Your memories… painted with light like nothing else you’ve ever seen before…" style="whiteSpace=wrap;html=1;fontSize=20;" vertex="1" parent="1">
          <mxGeometry x="640" y="460" width="300" height="195" as="geometry" />
        </mxCell>
        <mxCell id="pWCl2BbgRapGhpGF9SnJ-2" value="You owe it to yourself to document your precious moments of Your Wedding Day in a stylish, creative, elegant, fun and modern way.&lt;br&gt;&lt;br&gt;I am Jakub from QubArtStudios, and I provide beautiful wedding and portrait photography.&lt;br&gt;&lt;br&gt;It’s my sincere hope that you’ll share the love, laughter and warmth of your special day with QubArtStudios because You Deserve The Best.&lt;br&gt;&lt;br&gt;It would mean so much to me to hear from you." style="rounded=0;html=1;fontSize=13;whiteSpace=wrap;" vertex="1" parent="1">
          <mxGeometry x="20" y="840" width="1200" height="480" as="geometry" />
        </mxCell>
        <mxCell id="pWCl2BbgRapGhpGF9SnJ-3" value="&#xa;&#xa;&lt;p style=&quot;box-sizing: inherit; padding: 0px; margin-right: auto; margin-left: auto; overflow-wrap: break-word; color: rgb(40, 48, 61); font-size: 20px; font-style: normal; font-weight: 400; letter-spacing: normal; text-align: left; text-indent: 0px; text-transform: none; word-spacing: 0px;&quot;&gt;My goal is to take&lt;span&gt;&amp;nbsp;&lt;/span&gt;&lt;strong style=&quot;box-sizing: inherit ; font-weight: 700&quot;&gt;photographs&lt;/strong&gt;&lt;span&gt;&amp;nbsp;&lt;/span&gt;that will reflect your&lt;strong style=&quot;box-sizing: inherit ; font-weight: 700&quot;&gt;&lt;span&gt;&amp;nbsp;&lt;/span&gt;unique style&lt;/strong&gt;&lt;span&gt;&amp;nbsp;&lt;/span&gt;and personality. &amp;nbsp;My photographs will tell your story and bring a&lt;strong style=&quot;box-sizing: inherit ; font-weight: 700&quot;&gt;&lt;span&gt;&amp;nbsp;&lt;/span&gt;smile to your face&lt;/strong&gt;, tears of happiness and&lt;span&gt;&amp;nbsp;&lt;/span&gt;&lt;strong style=&quot;box-sizing: inherit ; font-weight: 700&quot;&gt;wonderful memories&lt;/strong&gt;&lt;span&gt;&amp;nbsp;&lt;/span&gt;for many years to come.&lt;/p&gt;&lt;p style=&quot;box-sizing: inherit; padding: 0px; margin-right: auto; margin-left: auto; overflow-wrap: break-word; color: rgb(40, 48, 61); font-size: 20px; font-style: normal; font-weight: 400; letter-spacing: normal; text-align: left; text-indent: 0px; text-transform: none; word-spacing: 0px;&quot;&gt;&lt;strong style=&quot;box-sizing: inherit ; font-weight: 700&quot;&gt;I am inviting&lt;/strong&gt;&lt;span&gt;&amp;nbsp;&lt;/span&gt;you to take that&lt;strong style=&quot;box-sizing: inherit ; font-weight: 700&quot;&gt;&lt;span&gt;&amp;nbsp;&lt;/span&gt;amazing journey&lt;/strong&gt;&lt;span&gt;&amp;nbsp;&lt;/span&gt;through&lt;span&gt;&amp;nbsp;&lt;/span&gt;&lt;strong style=&quot;box-sizing: inherit ; font-weight: 700&quot;&gt;your wedding day&lt;/strong&gt;&lt;span&gt;&amp;nbsp;&lt;/span&gt;with me. I’ll use my skills and creativity to do&lt;strong style=&quot;box-sizing: inherit ; font-weight: 700&quot;&gt;&lt;span&gt;&amp;nbsp;&lt;/span&gt;my best&lt;/strong&gt;&lt;span&gt;&amp;nbsp;&lt;/span&gt;telling your own story in the&lt;span&gt;&amp;nbsp;&lt;/span&gt;&lt;strong style=&quot;box-sizing: inherit ; font-weight: 700&quot;&gt;most artistic way&lt;/strong&gt;&lt;span&gt;&amp;nbsp;&lt;/span&gt;possible.&lt;/p&gt;&lt;p style=&quot;box-sizing: inherit; padding: 0px; margin-right: auto; margin-left: auto; overflow-wrap: break-word; color: rgb(40, 48, 61); font-size: 20px; font-style: normal; font-weight: 400; letter-spacing: normal; text-align: left; text-indent: 0px; text-transform: none; word-spacing: 0px;&quot;&gt;It will be an&amp;nbsp;absolute&lt;strong style=&quot;box-sizing: inherit ; font-weight: 700&quot;&gt;&amp;nbsp;honour and privilege&lt;/strong&gt;&lt;span&gt;&amp;nbsp;&lt;/span&gt;to me having a chance to be part of&lt;strong style=&quot;box-sizing: inherit ; font-weight: 700&quot;&gt;&lt;span&gt;&amp;nbsp;&lt;/span&gt;your Special Day&lt;/strong&gt;.&lt;/p&gt;&lt;p style=&quot;box-sizing: inherit; padding: 0px; margin-right: auto; margin-left: auto; overflow-wrap: break-word; color: rgb(40, 48, 61); font-size: 20px; font-style: normal; font-weight: 400; letter-spacing: normal; text-align: left; text-indent: 0px; text-transform: none; word-spacing: 0px;&quot;&gt;Enjoy the&lt;span&gt;&amp;nbsp;&lt;/span&gt;&lt;strong style=&quot;box-sizing: inherit ; font-weight: 700&quot;&gt;unique&lt;/strong&gt;&lt;strong style=&quot;box-sizing: inherit ; font-weight: 700&quot;&gt;&lt;span&gt;&amp;nbsp;&lt;/span&gt;experience&lt;/strong&gt;&amp;nbsp;of&amp;nbsp;&lt;strong style=&quot;box-sizing: inherit ; font-weight: 700&quot;&gt;QubArtStudios Wedding Photography&lt;/strong&gt;.&lt;/p&gt;&#xa;&#xa;" style="rounded=0;whiteSpace=wrap;html=1;fontSize=20;" vertex="1" parent="1">
          <mxGeometry x="53.33" y="3700" width="1060" height="370" as="geometry" />
        </mxCell>
        <mxCell id="pWCl2BbgRapGhpGF9SnJ-6" value="" style="whiteSpace=wrap;html=1;fontSize=20;gradientColor=none;" vertex="1" parent="1">
          <mxGeometry x="30" y="1330" width="386.667" height="600" as="geometry" />
        </mxCell>
        <mxCell id="pWCl2BbgRapGhpGF9SnJ-7" value="" style="whiteSpace=wrap;html=1;fontSize=20;gradientColor=none;" vertex="1" parent="1">
          <mxGeometry x="428" y="1330" width="386.667" height="600" as="geometry" />
        </mxCell>
        <mxCell id="pWCl2BbgRapGhpGF9SnJ-8" value="" style="whiteSpace=wrap;html=1;fontSize=20;gradientColor=none;" vertex="1" parent="1">
          <mxGeometry x="825" y="1330" width="386.667" height="600" as="geometry" />
        </mxCell>
        <mxCell id="pWCl2BbgRapGhpGF9SnJ-15" value="" style="rounded=0;whiteSpace=wrap;html=1;fontSize=20;gradientColor=none;" vertex="1" parent="1">
          <mxGeometry x="830.33" y="1335" width="376" height="400" as="geometry" />
        </mxCell>
        <mxCell id="pWCl2BbgRapGhpGF9SnJ-17" value="19 December 2021" style="text;html=1;strokeColor=none;fillColor=none;align=center;verticalAlign=middle;whiteSpace=wrap;rounded=0;fontSize=15;fontStyle=2" vertex="1" parent="1">
          <mxGeometry x="128.32999999999998" y="1765" width="190" height="20" as="geometry" />
        </mxCell>
        <mxCell id="pWCl2BbgRapGhpGF9SnJ-18" value="&lt;span style=&quot;color: rgb(38, 38, 38); font-size: 30px; text-align: left; background-color: rgb(255, 255, 255);&quot;&gt;Emma &amp;amp; Darragh&lt;/span&gt;" style="text;html=1;strokeColor=none;fillColor=none;align=center;verticalAlign=middle;whiteSpace=wrap;rounded=0;fontSize=30;" vertex="1" parent="1">
          <mxGeometry x="105" y="1810" width="235" height="20" as="geometry" />
        </mxCell>
        <mxCell id="pWCl2BbgRapGhpGF9SnJ-19" value="Ratsallagh House" style="text;html=1;strokeColor=none;fillColor=none;align=center;verticalAlign=middle;whiteSpace=wrap;rounded=0;fontSize=18;" vertex="1" parent="1">
          <mxGeometry x="133.32999999999998" y="1870" width="160" height="20" as="geometry" />
        </mxCell>
        <mxCell id="pWCl2BbgRapGhpGF9SnJ-21" value="19 December 2021" style="text;html=1;strokeColor=none;fillColor=none;align=center;verticalAlign=middle;whiteSpace=wrap;rounded=0;fontSize=15;fontStyle=2" vertex="1" parent="1">
          <mxGeometry x="525" y="1765" width="190" height="20" as="geometry" />
        </mxCell>
        <mxCell id="pWCl2BbgRapGhpGF9SnJ-22" value="&lt;span style=&quot;color: rgb(38, 38, 38); font-size: 30px; text-align: left; background-color: rgb(255, 255, 255);&quot;&gt;Emma &amp;amp; Darragh&lt;/span&gt;" style="text;html=1;strokeColor=none;fillColor=none;align=center;verticalAlign=middle;whiteSpace=wrap;rounded=0;fontSize=30;" vertex="1" parent="1">
          <mxGeometry x="501.67" y="1815" width="235" height="20" as="geometry" />
        </mxCell>
        <mxCell id="pWCl2BbgRapGhpGF9SnJ-23" value="Ratsallagh House" style="text;html=1;strokeColor=none;fillColor=none;align=center;verticalAlign=middle;whiteSpace=wrap;rounded=0;fontSize=18;" vertex="1" parent="1">
          <mxGeometry x="530" y="1875" width="160" height="20" as="geometry" />
        </mxCell>
        <mxCell id="pWCl2BbgRapGhpGF9SnJ-24" value="19 December 2021" style="text;html=1;strokeColor=none;fillColor=none;align=center;verticalAlign=middle;whiteSpace=wrap;rounded=0;fontSize=15;fontStyle=2" vertex="1" parent="1">
          <mxGeometry x="923.33" y="1770" width="190" height="20" as="geometry" />
        </mxCell>
        <mxCell id="pWCl2BbgRapGhpGF9SnJ-25" value="&lt;span style=&quot;color: rgb(38, 38, 38); font-size: 30px; text-align: left; background-color: rgb(255, 255, 255);&quot;&gt;Emma &amp;amp; Darragh&lt;/span&gt;" style="text;html=1;strokeColor=none;fillColor=none;align=center;verticalAlign=middle;whiteSpace=wrap;rounded=0;fontSize=30;" vertex="1" parent="1">
          <mxGeometry x="900" y="1820" width="235" height="20" as="geometry" />
        </mxCell>
        <mxCell id="pWCl2BbgRapGhpGF9SnJ-26" value="Ratsallagh House" style="text;html=1;strokeColor=none;fillColor=none;align=center;verticalAlign=middle;whiteSpace=wrap;rounded=0;fontSize=18;" vertex="1" parent="1">
          <mxGeometry x="928.33" y="1880" width="160" height="20" as="geometry" />
        </mxCell>
        <mxCell id="pWCl2BbgRapGhpGF9SnJ-27" value="&amp;lt; 5 x testiomnials 100% width, height 600px, text over image &amp;gt;" style="rounded=0;html=1;fontSize=13;whiteSpace=wrap;" vertex="1" parent="1">
          <mxGeometry x="19.42" y="1980" width="1199.5" height="480" as="geometry" />
        </mxCell>
        <mxCell id="pWCl2BbgRapGhpGF9SnJ-30" value="" style="rounded=0;whiteSpace=wrap;html=1;fontSize=20;gradientColor=none;" vertex="1" parent="1">
          <mxGeometry x="434.00000000000006" y="1335" width="376" height="400" as="geometry" />
        </mxCell>
        <mxCell id="pWCl2BbgRapGhpGF9SnJ-32" value="" style="rounded=0;whiteSpace=wrap;html=1;fontSize=20;gradientColor=none;" vertex="1" parent="1">
          <mxGeometry x="35.33000000000004" y="1335" width="376" height="400" as="geometry" />
        </mxCell>
        <mxCell id="pWCl2BbgRapGhpGF9SnJ-33" value="" style="whiteSpace=wrap;html=1;fontSize=18;gradientColor=none;" vertex="1" parent="1">
          <mxGeometry x="20" y="2510" width="1200" height="600" as="geometry" />
        </mxCell>
        <mxCell id="pWCl2BbgRapGhpGF9SnJ-34" value="contact form" style="text;html=1;strokeColor=none;fillColor=none;align=center;verticalAlign=middle;whiteSpace=wrap;rounded=0;fontSize=18;" vertex="1" parent="1">
          <mxGeometry x="30" y="2530" width="140" height="20" as="geometry" />
        </mxCell>
        <mxCell id="pWCl2BbgRapGhpGF9SnJ-35" value="" style="rounded=0;whiteSpace=wrap;html=1;fontSize=18;gradientColor=none;" vertex="1" parent="1">
          <mxGeometry x="20" y="3080" width="1200" height="400" as="geometry" />
        </mxCell>
        <mxCell id="pWCl2BbgRapGhpGF9SnJ-36" value="footer" style="text;html=1;strokeColor=none;fillColor=none;align=center;verticalAlign=middle;whiteSpace=wrap;rounded=0;fontSize=18;" vertex="1" parent="1">
          <mxGeometry x="35.33" y="3090" width="54.67" height="20" as="geometry" />
        </mxCell>
        <mxCell id="pWCl2BbgRapGhpGF9SnJ-38" value="" style="group" vertex="1" connectable="0" parent="1">
          <mxGeometry x="840" y="50" width="150" height="30" as="geometry" />
        </mxCell>
        <mxCell id="0IVP30iTPEPVjAzCu8zg-3" value="" style="shape=image;html=1;verticalAlign=top;verticalLabelPosition=bottom;labelBackgroundColor=#ffffff;imageAspect=0;aspect=fixed;image=https://cdn4.iconfinder.com/data/icons/ionicons/512/icon-ios7-telephone-128.png;fontSize=6;" parent="pWCl2BbgRapGhpGF9SnJ-38" vertex="1">
          <mxGeometry width="30" height="30" as="geometry" />
        </mxCell>
        <mxCell id="0IVP30iTPEPVjAzCu8zg-4" value="087 740 5135" style="text;html=1;points=[];align=left;verticalAlign=top;spacingTop=-4;fontSize=13;fontFamily=Verdana" parent="pWCl2BbgRapGhpGF9SnJ-38" vertex="1">
          <mxGeometry x="40" y="5" width="110" height="20" as="geometry" />
        </mxCell>
        <mxCell id="pWCl2BbgRapGhpGF9SnJ-39" value="" style="group" vertex="1" connectable="0" parent="1">
          <mxGeometry x="840" y="95" width="208" height="28" as="geometry" />
        </mxCell>
        <mxCell id="0IVP30iTPEPVjAzCu8zg-5" value="" style="shape=image;html=1;verticalAlign=top;verticalLabelPosition=bottom;labelBackgroundColor=#ffffff;imageAspect=0;aspect=fixed;image=https://cdn4.iconfinder.com/data/icons/ionicons/512/icon-ios7-email-128.png" parent="pWCl2BbgRapGhpGF9SnJ-39" vertex="1">
          <mxGeometry width="28" height="28" as="geometry" />
        </mxCell>
        <mxCell id="0IVP30iTPEPVjAzCu8zg-6" value="qubartstudios@gmail.com" style="text;html=1;strokeColor=none;fillColor=none;align=center;verticalAlign=middle;whiteSpace=wrap;rounded=0;fontSize=13;" parent="pWCl2BbgRapGhpGF9SnJ-39" vertex="1">
          <mxGeometry x="38" y="4" width="170" height="20" as="geometry" />
        </mxCell>
      </root>
    </mxGraphModel>
  </diagram>
</mxfile>
